<?xml version="1.0" encoding="utf-8"?>
<!-- Generator: Adobe Illustrator 15.1.0, SVG Export Plug-In  -->
<!DOCTYPE svg PUBLIC "-//W3C//DTD SVG 1.1//EN" "http://www.w3.org/Graphics/SVG/1.1/DTD/svg11.dtd" [
	<!ENTITY ns_flows "http://ns.adobe.com/Flows/1.0/">
]>
<svg version="1.1"
	 xmlns="http://www.w3.org/2000/svg" xmlns:xlink="http://www.w3.org/1999/xlink" xmlns:a="http://ns.adobe.com/AdobeSVGViewerExtensions/3.0/"
	 x="0px" y="0px" width="126px" height="162px" viewBox="0 0 126 162" enable-background="new 0 0 126 162" xml:space="preserve">
<defs>
</defs>
<path fill="#FFFFFF" d="M35.04,84.877c-1.189-4.156-3.702-6.177-7.683-6.177c-2.592,0-5.455,0.856-7.914,1.693
	c-1.32,0.45-1.55,2.851-1.292,4.411c0.296,1.789,1.22,2.695,2.316,2.321c2.178-0.741,4.678-1.533,6.775-1.533
	c2.719,0,4.296,1.321,4.965,4.157c0.942,3.995,0.626,10.914-3.044,13.078c-0.568,0.334-1.228,0.504-1.961,0.504
	c-2.638,0-5.794-2.142-7.695-3.977c-3.539-3.414-5.953-8.082-7.848-12.197c-4.587-9.963-7.389-21.385-7.889-32.163
	c-0.22-4.752,0.133-8.156,2.591-11.492c1.073-1.458,2.409-2.197,3.969-2.197c3.653,0,7.809,4.214,8.084,8.199
	c0.113,1.625,0.581,2.45,1.391,2.45c0.24,0,0.611-0.091,1.013-0.522c0.643-0.688,1.24-2.144,1.14-3.592
	c-0.418-6.021-5.191-13.111-11.373-13.656c-7.031-0.608-9.82,9.27-10.314,14.417c-1.695,17.646,4.932,35.222,9.033,44.128
	c2.17,4.714,10.427,17.652,17.829,17.652c2.658,0,4.907-1.624,6.683-4.826C37.071,99.691,36.776,90.944,35.04,84.877z"/>
<path fill="#FFFFFF" d="M83.866,29.049c-3.376-0.085-7.024-0.091-10.612-0.031l-0.388,0.003c-0.553,0-1.175-0.016-1.839-0.033
	c-0.771-0.02-1.6-0.041-2.445-0.041c-2.672,0-5.984,0.192-7.903,1.694c-1.458,1.141-1.52,3.638-1.565,5.46
	c-0.007,0.293-0.014,0.567-0.027,0.812c-0.181,3.525-0.095,7.113-0.013,10.583l0.029,1.259c0.072,3.142,0.182,6.57,0.344,10.754
	l-2.889,0.17c-1.02,0.061-1.438,1.381-1.401,2.663c0.042,1.419,0.59,2.336,1.457,2.336c0,0,0.001,0,0.002,0l3.034-0.179
	c0.235,5.241,0.526,10.809,0.891,17.002c0.101,1.719,0.16,3.523,0.218,5.269c0.165,5.008,0.335,10.187,1.477,14.965
	c0.105,0.439,0.426,1.779,1.34,1.779c0.328,0,0.635-0.178,0.912-0.529c0.732-0.928,1.232-3.049,1.041-4.302
	c-0.003-0.139-0.034-0.357-0.09-0.75c-0.041-0.295-0.088-0.622-0.11-0.832c-0.126-1.171-0.222-2.346-0.318-3.52l-0.009-0.116
	c-0.327-3.991-0.581-8.06-0.813-11.885c-0.338-5.575-0.64-11.391-0.896-17.295l10.324-0.607c1.02-0.061,1.438-1.381,1.4-2.663
	c-0.041-1.419-0.59-2.336-1.457-2.336c0,0-0.001,0-0.002,0l-10.476,0.616c-0.089-2.309-0.169-4.617-0.241-6.927
	c-0.139-4.466-0.201-8.099-0.196-11.431c0.002-1.42,0.028-2.721,0.081-3.977c0.002-0.049,0.006-0.099,0.011-0.147
	c1.827-0.788,4.298-0.893,6.273-0.893c0.878,0,1.751,0.023,2.585,0.045c0.771,0.021,1.51,0.041,2.188,0.041l0.497-0.004
	c3.127-0.053,6.254-0.035,9.594,0.048l0,0c1.355,0,1.86-1.832,1.881-3.4C85.777,30.882,85.201,29.083,83.866,29.049z"/>
<path fill="#FFFFFF" d="M124.446,36.94l-30.25-6.693L94,30.225c-0.669,0-1.146,0.714-1.276,1.91
	c-0.145,1.322,0.187,2.852,1.255,3.088l11.759,2.602c-3.36,8.732-6.704,17.779-9.939,26.898c-3.141,8.85-5.406,15.652-7.344,22.054
	l-0.409,1.342c-1.425,4.656-2.896,9.469-2.935,14.305c-0.01,1.227,0.28,2.199,0.816,2.74c0.284,0.287,0.623,0.438,0.98,0.438
	c0.905,0,1.826-0.98,1.843-3.171c0.026-3.408,1.206-7.021,2.347-10.516c0.3-0.92,0.595-1.824,0.859-2.699
	c2.327-7.683,5.021-15.347,7.365-21.927c3.377-9.479,6.871-18.868,10.386-27.907c0.069-0.177,0.117-0.392,0.146-0.648l14.375,3.181
	l0.195,0.021c0,0,0,0,0.001,0c0.668,0,1.145-0.714,1.275-1.909C125.845,38.707,125.514,37.176,124.446,36.94z"/>
<path fill="#FFFFFF" d="M20.964,146.184c-2.074-4.68-5.645-7.063-9.426-9.584c-1.223-0.816-2.488-1.66-3.718-2.597
	c-2.333-1.776-4.282-3.728-2.755-5.953c0.973-1.417,2.869-3.073,5.011-3.073c0.483,0,0.953,0.09,1.398,0.266
	c1.775,0.705,3.093,3.193,3.733,5.287c0.096,0.314,0.388,1.27,1.127,1.27c0,0,0,0,0,0c0.204,0,0.506-0.08,0.79-0.463
	c0.485-0.655,0.842-2.191,0.559-3.118c-0.758-2.478-3.035-8.239-7.805-8.239c-0.369,0-0.75,0.036-1.13,0.106
	c-2.688,0.497-5.052,2.521-6.325,5.415c-1.335,3.035-1.226,6.418,0.284,8.83c1.901,3.037,4.827,4.895,7.657,6.692
	c2.562,1.627,4.982,3.164,6.734,5.511c1.126,1.508,1.993,3.247,2.577,5.17c0.292,0.959,0.218,1.744-0.218,2.333
	c-0.583,0.786-1.854,1.256-3.398,1.256c-0.986,0-1.956-0.2-2.593-0.535c-1.928-1.013-3.581-3.503-4.911-7.401
	c-0.076-0.225-0.309-0.906-0.9-0.906c-0.18,0-0.445,0.071-0.685,0.407c-0.539,0.753-0.883,2.833-0.605,3.649
	c1.248,3.659,4.163,9.797,9.67,9.797c0.554,0,1.126-0.065,1.701-0.194c1.877-0.422,3.232-1.438,4.028-3.019
	C23.347,153.944,22.323,149.249,20.964,146.184z"/>
<path fill="#FFFFFF" d="M39.18,153.657c-0.145-1.162-0.6-1.828-1.249-1.828l-0.216,0.027c-2.062,0.522-3.988,0.809-5.887,0.877
	l-0.194,0.004c-1.422,0-1.544-0.531-1.872-1.951c-0.046-0.203-0.096-0.417-0.152-0.639c-1.029-4.068-1.72-8.15-2.437-12.65
	l3.828-0.475c1.046-0.13,1.432-1.519,1.351-2.838c-0.083-1.334-0.601-2.162-1.353-2.162l-0.121,0.008
	c-0.76,0.094-1.769,0.188-2.777,0.282c-0.587,0.055-1.175,0.11-1.714,0.165c-0.311-2.088-0.56-4.209-0.801-6.266
	c-0.186-1.588-0.373-3.178-0.588-4.773c-0.007-0.053-0.022-0.164-0.033-0.264c0.847-0.332,2.021-0.551,3.065-0.75l0.625-0.112
	c1.526-0.302,3.19-0.517,5.396-0.731c1.036-0.102,1.436-1.432,1.373-2.735c-0.067-1.374-0.59-2.167-1.462-2.167
	c-0.002,0-0.005,0-0.007,0c-0.368,0-0.824,0.004-1.34,0.037c-3.741,0.246-10.002,0.595-10.37,4.479
	c-0.366,3.854,0.336,7.92,1.015,11.853c0.193,1.119,0.383,2.223,0.553,3.354c0.951,6.354,1.935,12.925,3.621,19.208
	c0.75,2.793,2.445,4.15,5.185,4.15c1.662,0,3.533-0.475,5.343-0.933C39.036,156.553,39.346,154.993,39.18,153.657z"/>
<path fill="#FFFFFF" d="M54.87,132.618c-0.065-0.556-0.127-1.303-0.2-2.179c-0.456-5.472-1.303-15.655-5.929-17.046
	c-0.682-0.206-1.343-0.007-1.909,0.572c-4.691,4.805-4.077,39.879-4.069,40.23c0.037,1.568,0.742,2.271,1.425,2.271
	c0.281,0,0.555-0.123,0.771-0.344c0.384-0.394,0.584-1.086,0.563-1.951c-0.118-4.963-0.103-9.978,0.063-15.779
	c0.01-0.353,0.001-0.87,0.001-1.541v-0.174c2,0,4.624,0,6.885,0c0.797,7.508,1.247,15.063,1.354,17.381
	c0.07,1.517,0.77,2.195,1.433,2.195c0.287,0,0.565-0.127,0.784-0.355c0.391-0.41,0.583-1.123,0.542-2.01
	C56.249,146.583,55.671,139.426,54.87,132.618z M48.439,118.862c0.053-0.004,0.105-0.006,0.158,0.002
	c0.461,0.164,1.894,1.617,3.293,12.814h-6.234C45.943,121.186,47.463,119.126,48.439,118.862z"/>
<path fill="#FFFFFF" d="M66.103,134.902c7.185-2.63,10.019-7.387,8.426-14.144c-0.725-3.068-3.263-5.588-6.965-6.912
	c-0.725-0.26-2.135-0.693-3.443-0.693c-1.996,0-2.633,1.01-2.816,1.856c-0.269,1.241-0.066,2.528,0.13,3.773
	c0.11,0.696,0.213,1.353,0.24,1.999c0.155,3.848,0.104,7.775,0.054,11.573l-0.012,0.951c-0.081,6.296-0.247,12.944-0.508,20.326
	c-0.031,0.866,0.162,1.56,0.542,1.953c0.732,0.759,2.139,0.294,2.217-1.918c0.165-4.644,0.33-9.569,0.439-14.462l7.073,16.439
	c0.092,0.213,0.371,0.862,0.958,0.862c0,0,0,0,0.001,0c0.202,0,0.497-0.083,0.755-0.476c0.5-0.76,0.816-2.754,0.449-3.609
	L66.103,134.902z M64.476,122.204c-0.025-1.236-0.054-2.619-0.174-4.002c0.418,0.006,0.859,0.084,1.286,0.159l0.173,0.03
	c2.314,0.402,5.282,2.138,6.242,4.347c0.533,1.227,0.395,2.476-0.412,3.712c-1.408,2.154-5.168,3.399-7.063,3.947
	C64.542,127.302,64.525,124.684,64.476,122.204z"/>
<path fill="#FFFFFF" d="M90.544,116.317c-1.277-1.295-2.961-1.67-4.938-1.084c-6.125,1.813-7.711,11.467-8.563,16.654l-0.075,0.456
	c-1.619,9.8-1.099,16.823,1.592,21.472c1.403,2.424,3.045,2.934,4.176,2.934c3.242,0,6.4-4.011,7.207-7.609
	c0.195-0.869-0.173-2.461-0.729-3.154c-0.269-0.336-0.545-0.406-0.729-0.406c-0.742,0-0.965,0.995-1.039,1.322
	c-0.563,2.515-2.77,4.805-4.627,4.805c-1.054,0-1.924-0.697-2.588-2.075c-2.093-4.347-1.305-10.532-0.729-15.048
	c0.595-4.655,1.691-10.395,4.918-13.48c1.643-1.572,3.072-1.803,4.229-0.627c1.232,1.25,1.85,3.748,1.822,5.57
	c-0.013,0.863,0.193,1.556,0.58,1.948c0.221,0.224,0.487,0.343,0.771,0.343c0.684,0,1.385-0.704,1.408-2.275
	C93.256,124.44,93.133,118.945,90.544,116.317z"/>
<path fill="#FFFFFF" d="M111.424,119.348c-0.211-0.256-0.449-0.387-0.707-0.387c-0.743,0-0.94,1.008-1.005,1.339
	c-0.907,4.625-1.842,9.515-2.932,15.352c-1.097-0.298-2.338-0.647-3.579-0.997c-1.237-0.349-2.475-0.697-3.569-0.994
	c0.7-4.311,1.386-8.625,2.048-12.941c0.138-0.895-0.117-1.928-0.619-2.512c-0.313-0.365-0.628-0.441-0.838-0.441
	c-0.438,0-1.008,0.302-1.229,1.738c-0.732,4.773-1.53,9.805-2.439,15.383c-0.293,1.797-0.527,3.623-0.776,5.559
	c-0.621,4.846-1.264,9.857-2.875,14.199c-0.303,0.814,0.007,2.854,0.552,3.638c0.247,0.354,0.521,0.429,0.709,0.429
	c0.59,0,0.839-0.67,0.921-0.891c1.607-4.329,2.284-9.175,2.938-13.86c0.227-1.628,0.451-3.237,0.712-4.798l0.09-0.553l7.026,1.822
	c-0.214,1.035-0.438,2.079-0.665,3.131c-1.123,5.213-2.285,10.604-2.256,15.799c0.009,1.576,0.704,2.281,1.391,2.281
	c0.283,0,0.551-0.119,0.772-0.342c0.39-0.393,0.602-1.082,0.597-1.945c-0.025-4.447,1.017-9.178,2.023-13.753
	c0.406-1.847,0.79-3.592,1.11-5.329c1.037-5.619,2.146-11.43,3.388-17.763C112.382,121.646,111.977,120.02,111.424,119.348z"/>
<path fill="#ED522E" d="M48.65,90.465c-0.107-1.018-0.214-2.025-0.336-3.016c-0.996-8.083-1.815-16.25-2.57-23.923
	c-0.968-9.85-1.894-19.964-2.75-30.072c2.632-0.502,5.109-1.634,7.217-3.313c6.191-5.852,7.557-14.866,3.399-22.432
	C50.958,2.882,45.99,0,40.321,0C36.6,0,32.951,1.273,30.046,3.584c-6.869,5.466-7.139,15.712-3.431,22.459
	c2.552,4.645,7.28,7.49,12.713,7.679c0.873,10.376,1.875,21.324,2.977,32.541c0.687,6.983,1.53,15.268,2.577,23.768
	c0.112,0.911,0.214,1.838,0.318,2.773c0.419,3.799,0.853,7.729,2.021,11.328c0.137,0.424,0.555,1.711,1.48,1.711c0,0,0,0,0,0
	c0.254,0,0.635-0.105,1.003-0.611c0.685-0.941,1.17-3.131,0.746-4.437C49.398,97.545,49.018,93.946,48.65,90.465z M49.088,25.529
	c-4.655,3.705-10.477,4.302-15.708,1.599c-3.388-1.75-5.537-4.717-6.05-8.354c-0.542-3.839,0.893-7.793,3.838-10.578
	c2.367-2.237,5.258-3.42,8.36-3.42c5.43,0,10.805,3.606,12.781,8.575C54.012,17.63,52.857,21.965,49.088,25.529z"/>
<path fill="#FFFFFF" d="M43.421,11.262c2.96,0.159,6.106,2.144,5.886,5.417c-0.03,0.444-0.069,1.255,0.384,1.538
	c0.438,0.274,0.659-0.621,0.676-0.873c0.187-2.782-0.422-5.497-2.799-7.186c-1.155-0.822-2.73-1.32-4.148-1.396
	C42.667,8.721,42.621,11.219,43.421,11.262L43.421,11.262z"/>
</svg>
